<?xml version="1.0" encoding="utf-8"?>
<!-- Generator: Adobe Illustrator 15.0.0, SVG Export Plug-In . SVG Version: 6.00 Build 0)  -->
<!DOCTYPE svg PUBLIC "-//W3C//DTD SVG 1.1//EN" "http://www.w3.org/Graphics/SVG/1.1/DTD/svg11.dtd">
<svg version="1.1" id="Layer_1" xmlns="http://www.w3.org/2000/svg" xmlns:xlink="http://www.w3.org/1999/xlink" x="0px" y="0px"
	 width="26px" height="26px" viewBox="0 0 26 26" enable-background="new 0 0 26 26" xml:space="preserve">
<g>
	<path d="M14.798,13.849c0,0-0.717-6.853-3.416-6.853c-3.067,0-4.335,0-4.335,0v6.303c-0.474,0-0.87,0-1.107,0
		c-1.107,0,0,3.918,0,3.918h0.687c0.047-0.973,0.852-1.751,1.838-1.751c0.985,0,1.79,0.778,1.837,1.751h2.241
		c-0.001-0.009-0.002-0.017-0.002-0.026c0-1.079,0.88-1.958,1.96-1.958c1.079,0,1.958,0.879,1.958,1.958
		c0,0.126-0.013,0.248-0.035,0.367h0.693l-1.154-3.624C14.904,14.531,14.798,13.849,14.798,13.849z M11.307,14.066l-1.022-1.789
		H8.07V8.019h3.129c0.914,0,1.419,1.273,1.683,2.342c0.168,0.683,0.685,3.164,0.731,3.706H11.307z"/>
	<path d="M14.51,15.46c-0.939,0-1.7,0.762-1.7,1.7c0,0.939,0.761,1.7,1.7,1.7c0.938,0,1.7-0.761,1.7-1.7
		C16.21,16.222,15.448,15.46,14.51,15.46z M14.51,18.146c-0.543,0-0.985-0.442-0.985-0.985s0.442-0.984,0.985-0.984
		s0.984,0.441,0.984,0.984S15.053,18.146,14.51,18.146z"/>
	<path d="M8.417,15.771c-0.893,0-1.616,0.725-1.616,1.616c0,0.891,0.723,1.615,1.616,1.615c0.891,0,1.615-0.725,1.615-1.615
		C10.031,16.496,9.308,15.771,8.417,15.771z M8.417,18.322c-0.516,0-0.935-0.419-0.935-0.935s0.419-0.937,0.935-0.937
		c0.515,0,0.935,0.421,0.935,0.937S8.931,18.322,8.417,18.322z"/>
	<path d="M22.023,15.543c-0.063-0.192-0.271-0.298-0.461-0.233l-3.544,1.167l-3.063-9.202c-0.064-0.192-0.271-0.294-0.464-0.231
		c-0.192,0.064-0.296,0.271-0.231,0.463l3.18,9.548c0.052,0.153,0.193,0.25,0.348,0.25c0.038,0,0.076-0.006,0.114-0.018l3.89-1.282
		C21.983,15.941,22.088,15.735,22.023,15.543z"/>
</g>
</svg>
